# xmcd
#
# Track frame offsets:
#	150
#	22432
#	47315
#	68455
#	89770
#	106750
#	126082
#	150015
#	169907
#	197455
#	219247
#
# Disc length: 3280 seconds
#
# Revision: 1
# Processed by: cddbd v1.5PL3 Copyright (c) Steve Scherf et al.
# Submitted via: CDex 1.50Beta5
#
DISCID=840cce0b
DTITLE=安部恭弘 - BALLADES
DYEAR=1992
DGENRE=Pop
TTITLE0=裸足のバレリーナ
TTITLE1=トパーズ色の月
TTITLE2=黄昏
TTITLE3=Sounds Of Love
TTITLE4=砂色の夜明け
TTITLE5=シングルズ・バーの週末
TTITLE6=優しい最後の夏
TTITLE7=君は夢の中
TTITLE8=言葉に出来ない
TTITLE9=君の愛がすべて
TTITLE10=MANHATTAN
EXTD=
EXTT0=
EXTT1=
EXTT2=
EXTT3=
EXTT4=
EXTT5=
EXTT6=
EXTT7=
EXTT8=
EXTT9=
EXTT10=
PLAYORDER=
